<?xml version="1.0" encoding="utf-8"?>
<!-- Generator: Adobe Illustrator 27.5.0, SVG Export Plug-In . SVG Version: 6.00 Build 0)  -->
<svg version="1.1" xmlns="http://www.w3.org/2000/svg" xmlns:xlink="http://www.w3.org/1999/xlink" x="0px" y="0px"
	 viewBox="0 0 500 500" style="enable-background:new 0 0 500 500;" xml:space="preserve">
<g id="BACKGROUND">
	<rect style="fill:#FFFFFF;" width="500" height="500"/>
</g>
<g id="OBJECTS">
	<g>
		<path style="fill:none;stroke:#D4D4D4;stroke-width:0.75;stroke-linecap:round;stroke-linejoin:round;stroke-miterlimit:10;" d="
			M39.375,120.021c0,0,78.134,14.895,76.349,85.408c-1.785,70.513,56.903,171.381,132.376,164.366
			c75.473-7.015,178.264-86.679,193.274-133.515c5.962-18.605-15.747-20.683-13.647-3.304c1.888,15.626,10.708,25.625,24.775,28.459
			"/>
		<path style="fill:none;stroke:#D4D4D4;stroke-width:0.75;stroke-linecap:round;stroke-linejoin:round;stroke-miterlimit:10;" d="
			M125.419,98.155c0,0-18.281-38.002-31.513-31.641c-12.164,5.847,6.202,34.83,25.346-10.248"/>
		<polygon style="fill:#D4D4D4;" points="398.384,94.499 393.433,108.814 407.99,105.642 		"/>
		<polygon style="fill:#D4D4D4;" points="41.228,227.42 52.92,230.863 43.591,238.534 		"/>
		<polygon style="fill:#D4D4D4;" points="462.844,287.8 452.502,280.435 466.309,277.517 		"/>
	</g>
	<g>
		<g>
			<g>
				<path style="fill:#FFFFFF;stroke:#000000;stroke-width:0.75;stroke-miterlimit:10;" d="M193.966,229.005
					c-0.446-5.37,3.546-10.084,8.916-10.53c5.37-0.446,10.085,3.546,10.531,8.916c0.446,5.37-3.546,10.084-8.916,10.53
					C199.126,238.367,194.412,234.375,193.966,229.005z"/>
				
					<path style="fill:none;stroke:#000000;stroke-width:0.75;stroke-linecap:round;stroke-linejoin:round;stroke-miterlimit:10;" d="
					M197.064,228.748c-0.304-3.659,2.416-6.871,6.075-7.175c3.659-0.304,6.871,2.416,7.175,6.075
					c0.304,3.659-2.416,6.871-6.075,7.175C200.58,235.126,197.368,232.407,197.064,228.748z"/>
			</g>
			<g>
				
					<ellipse transform="matrix(0.1263 -0.992 0.992 0.1263 -11.817 439.2427)" style="fill:#FFFFFF;stroke:#000000;stroke-width:0.75;stroke-miterlimit:10;" cx="243.457" cy="226.33" rx="39.336" ry="39.336"/>
				<path d="M242.799,187c-18.781,0.315-34.256,13.745-37.87,31.414c3.205-0.171,7.067-0.575,11.14-1.426
					c2.757-0.577,7.728-2.996,10.006-7.721c-0.394,1.194-0.975,6.225,1.217,6.878c4.428,1.319,5.765-4.205,6.8-6.793
					c-0.217,2.262-0.135,6.832,2.966,7.185c4.7,0.534,5.054-6.409,5.054-6.409s1.089,7.966,5.748,7.651
					c0.92-0.062,2.919-1.426,2.919-5.362c2.184,4.252,6.8,8.415,11.334,9.953c5.595,1.898,12.409,2.774,20.606,1.656
					C281.503,203.083,263.968,186.645,242.799,187z"/>
			</g>
			<g>
				<path style="fill:#FFFFFF;" d="M294.135,236.015c0.094,5.617-4.383,10.246-9.999,10.34c-5.616,0.094-10.246-4.383-10.34-9.999
					c-0.094-5.617,4.383-10.246,9.999-10.34C289.412,225.922,294.041,230.399,294.135,236.015z"/>
				
					<path style="fill:none;stroke:#000000;stroke-width:0.75;stroke-linecap:round;stroke-linejoin:round;stroke-miterlimit:10;" d="
					M283.85,229.257c3.827-0.064,6.981,2.986,7.045,6.813c0.064,3.827-2.986,6.981-6.813,7.045c-1.22,0.02-2.372-0.276-3.377-0.813"
					/>
				
					<path style="fill:none;stroke:#000000;stroke-width:0.75;stroke-linecap:round;stroke-linejoin:round;stroke-miterlimit:10;" d="
					M282.718,226.091c0.279-0.028,0.792-0.07,1.077-0.075c5.616-0.094,10.246,4.383,10.34,9.999
					c0.094,5.617-4.383,10.246-9.999,10.34c-2.163,0.036-4.18-0.606-5.848-1.73"/>
			</g>
		</g>
		<g>
			<g>
				<path style="fill:#ED5D1C;" d="M258.376,180.786c1.081-0.581,2.315-0.965,3.66-1.136l-0.31-0.104c0,0-0.546-7.429,10.267-6.157
					c1.968,0.232,3.949,0.946,5.874,1.954l-0.001-0.001c0,0,5.57-4.338,15.333,4.092c9.763,8.43,19.376,21.857,23.008,25.254
					c3.632,3.397,23.63,17.088,37.605,22.991c13.975,5.904,53.236,28.284,52.072,58.887c-1.164,30.604-27.866,77.245-78.884,83.859
					c-51.018,6.614-53.506-79.02-53.506-79.02l0.91-1.874c0,0,19.447,8.54,30.59,5.034c8.935-2.811,12.617-8.986,12.96-13.616
					l0.178-2.33l-1.606-1.343c0.374,0.201,0.744,0.399,1.105,0.593l0,0l-1.105-0.593c-12.756-6.834-33.033-17.379-38.812-32.742
					c-6.351-16.883-3.12-26.835-5.261-33.984c-2.141-7.15-7.328-13.18-11.654-15.137
					C255.362,192.954,252.212,184.101,258.376,180.786z"/>
				<path style="fill:#FFFFFF;" d="M336.978,218.853c-9.688-5.793-18.481-12.024-20.77-14.165
					c-3.632-3.397-13.245-16.824-23.008-25.254c-9.763-8.43-15.333-4.092-15.333-4.092l0.001,0.001
					c-1.924-1.008-3.905-1.722-5.874-1.954c-10.813-1.272-10.267,6.157-10.267,6.157l0.31,0.104
					c-1.344,0.171-2.579,0.555-3.66,1.136c-6.164,3.315-3.014,12.168,2.424,14.628c4.326,1.957,9.513,7.987,11.654,15.137
					c2.141,7.15-1.091,17.101,5.261,33.984c3.603,9.577,12.84,17.282,22.378,23.383
					C307.155,255.955,323.169,230.308,336.978,218.853z"/>
				<g>
					<defs>
						<path id="SVGID_1_" d="M304.995,294.566c8.935-2.811,12.617-8.986,12.96-13.616l0.178-2.33l-1.606-1.343
							c0.374,0.201,0.744,0.399,1.105,0.593l0,0l-1.105-0.593c-3.098-1.66-6.641-3.541-10.311-5.654
							c2.178-12.374,9.306-23.03,16.064-30.915c7.461-8.705,17.423-15.365,23.728-16.768c2.707,1.42,5.35,2.702,7.806,3.739
							c13.975,5.904,53.236,28.284,52.072,58.887c-1.164,30.604-27.866,77.245-78.884,83.859
							c-51.018,6.614-53.506-79.02-53.506-79.02l0.91-1.874C274.405,289.532,293.852,298.072,304.995,294.566z"/>
					</defs>
					<clipPath id="SVGID_00000100360777135759855450000009372146875730214581_">
						<use xlink:href="#SVGID_1_"  style="overflow:visible;"/>
					</clipPath>
					<g style="clip-path:url(#SVGID_00000100360777135759855450000009372146875730214581_);">
						
							<path style="fill:none;stroke:#FFFFFF;stroke-width:0.75;stroke-linecap:round;stroke-linejoin:round;stroke-miterlimit:10;" d="
							M372.723,232.036c-6.969,0.668-12.161,7.046-11.574,14.217c0.587,7.172,6.735,12.463,13.704,11.795
							c3.582-0.343,6.815-2.205,8.99-5.147c2.65,2.975,6.496,4.511,10.447,4.132c6.969-0.668,12.162-7.046,11.575-14.217
							c-0.587-7.172-6.736-12.463-13.705-11.795c-3.582,0.343-6.816,2.205-8.99,5.147
							C380.52,233.192,376.674,231.657,372.723,232.036z"/>
						
							<path style="fill:none;stroke:#FFFFFF;stroke-width:0.75;stroke-linecap:round;stroke-linejoin:round;stroke-miterlimit:10;" d="
							M304.427,232.036c-6.969,0.668-12.161,7.046-11.574,14.217c0.587,7.172,6.735,12.463,13.705,11.795
							c3.582-0.343,6.815-2.205,8.99-5.147c2.65,2.975,6.496,4.511,10.447,4.132c6.969-0.668,12.162-7.046,11.575-14.217
							c-0.587-7.172-6.736-12.463-13.705-11.795c-3.582,0.343-6.816,2.205-8.99,5.147
							C312.223,233.192,308.378,231.657,304.427,232.036z"/>
						
							<path style="fill:none;stroke:#FFFFFF;stroke-width:0.75;stroke-linecap:round;stroke-linejoin:round;stroke-miterlimit:10;" d="
							M332.743,268.988c-6.969,0.668-12.161,7.046-11.574,14.217c0.587,7.172,6.735,12.463,13.704,11.795
							c3.582-0.343,6.815-2.205,8.99-5.147c2.65,2.975,6.496,4.511,10.447,4.132c6.969-0.668,12.162-7.045,11.575-14.217
							c-0.587-7.172-6.736-12.463-13.705-11.795c-3.582,0.343-6.816,2.205-8.99,5.147
							C340.539,270.145,336.694,268.61,332.743,268.988z"/>
						
							<path style="fill:none;stroke:#FFFFFF;stroke-width:0.75;stroke-linecap:round;stroke-linejoin:round;stroke-miterlimit:10;" d="
							M387.003,296.434c-6.969,0.668-12.161,7.046-11.574,14.217c0.587,7.172,6.735,12.463,13.705,11.795
							c3.582-0.343,6.815-2.205,8.99-5.147c2.65,2.975,6.496,4.511,10.447,4.132c6.969-0.668,12.162-7.046,11.575-14.217
							c-0.587-7.172-6.736-12.463-13.705-11.795c-3.582,0.343-6.816,2.205-8.99,5.147
							C394.799,297.59,390.954,296.055,387.003,296.434z"/>
						
							<path style="fill:none;stroke:#FFFFFF;stroke-width:0.75;stroke-linecap:round;stroke-linejoin:round;stroke-miterlimit:10;" d="
							M332.743,322.05c-6.969,0.668-12.161,7.046-11.574,14.217c0.587,7.172,6.735,12.463,13.704,11.795
							c3.582-0.343,6.815-2.205,8.99-5.147c2.65,2.975,6.496,4.511,10.447,4.132c6.969-0.668,12.162-7.046,11.575-14.217
							c-0.587-7.172-6.736-12.463-13.705-11.795c-3.582,0.343-6.816,2.205-8.99,5.147
							C340.539,323.207,336.694,321.672,332.743,322.05z"/>
						
							<path style="fill:none;stroke:#FFFFFF;stroke-width:0.75;stroke-linecap:round;stroke-linejoin:round;stroke-miterlimit:10;" d="
							M271.625,299.62c2.186,1.309,4.777,1.953,7.494,1.693c3.582-0.343,6.815-2.205,8.99-5.147
							c2.65,2.975,6.496,4.511,10.447,4.132c6.969-0.668,12.162-7.046,11.575-14.217c-0.587-7.172-6.736-12.463-13.705-11.795
							c-3.582,0.343-6.815,2.205-8.99,5.147"/>
					</g>
				</g>
				<g>
					
						<path style="fill:none;stroke:#000000;stroke-width:0.75;stroke-linecap:round;stroke-linejoin:round;stroke-miterlimit:10;" d="
						M327.004,287.8c-1.108-3.383-3.199-6.538-6.93-8.601c-12.145-6.715-36.008-17.781-42.36-34.664
						c-6.351-16.883-3.12-26.835-5.261-33.984c-2.141-7.15-7.328-13.18-11.654-15.137c-5.438-2.46-8.588-11.313-2.424-14.628
						c6.164-3.315,17.25-0.376,25.932,13.587"/>
					
						<path style="fill:none;stroke:#000000;stroke-width:0.75;stroke-linecap:round;stroke-linejoin:round;stroke-miterlimit:10;" d="
						M294.012,190.392c0,0-11.205-15.732-22.018-17.003c-10.813-1.272-10.267,6.157-10.267,6.157"/>
					
						<path style="fill:none;stroke:#000000;stroke-width:0.75;stroke-linecap:round;stroke-linejoin:round;stroke-miterlimit:10;" d="
						M277.867,175.341c0,0,5.57-4.338,15.333,4.092c9.763,8.43,19.376,21.857,23.008,25.254c3.632,3.397,23.63,17.087,37.605,22.991
						c13.975,5.904,53.236,28.283,52.072,58.887c-1.164,30.604-27.866,77.245-78.884,83.859s-53.506-79.02-53.506-79.02l0.91-1.874
						c0,0,19.447,8.54,30.59,5.034c11.143-3.506,14.131-12.25,12.637-16.696"/>
				</g>
				<g>
					
						<path style="fill:#ED5D1C;stroke:#000000;stroke-width:0.75;stroke-linecap:round;stroke-linejoin:round;stroke-miterlimit:10;" d="
						M296.4,265.454c8.799-28.699,24.453-43.041,35.293-49.856c4.484,2.839,9.428,5.772,14.185,8.274
						c-22.694,15.789-33.427,36.844-37.971,48.713C304.143,270.464,300.191,268.094,296.4,265.454z"/>
					<g>
						
							<line style="fill:none;stroke:#000000;stroke-width:0.75;stroke-linecap:round;stroke-linejoin:round;stroke-miterlimit:10;" x1="336.137" y1="229.121" x2="325.534" y2="222.613"/>
						
							<line style="fill:none;stroke:#000000;stroke-width:0.75;stroke-linecap:round;stroke-linejoin:round;stroke-miterlimit:10;" x1="325.534" y1="239.584" x2="315.211" y2="232.977"/>
						
							<line style="fill:none;stroke:#000000;stroke-width:0.75;stroke-linecap:round;stroke-linejoin:round;stroke-miterlimit:10;" x1="317.699" y1="250.255" x2="307.15" y2="244.535"/>
						
							<line style="fill:none;stroke:#000000;stroke-width:0.75;stroke-linecap:round;stroke-linejoin:round;stroke-miterlimit:10;" x1="310.731" y1="262.616" x2="300.93" y2="257.256"/>
					</g>
				</g>
			</g>
			<g>
				<path style="fill:#ED5D1C;" d="M229.493,180.786c-1.081-0.581-2.315-0.965-3.66-1.136l0.31-0.104c0,0,0.546-7.429-10.267-6.157
					c-1.968,0.232-3.949,0.946-5.873,1.954l0-0.001c0,0-5.57-4.338-15.333,4.092c-9.763,8.43-19.376,21.857-23.008,25.254
					c-3.632,3.397-23.63,17.088-37.605,22.991c-13.975,5.904-53.236,28.284-52.072,58.887c1.164,30.604,27.866,77.245,78.884,83.859
					c51.018,6.614,53.506-79.02,53.506-79.02l-0.91-1.874c0,0-19.447,8.54-30.59,5.034c-8.934-2.811-12.617-8.986-12.96-13.616
					l-0.178-2.33l1.606-1.343c-0.374,0.201-0.744,0.399-1.105,0.593l0,0l1.105-0.593c12.756-6.834,33.033-17.379,38.812-32.742
					c6.351-16.883,3.12-26.835,5.261-33.984c2.141-7.15,7.328-13.18,11.654-15.137C232.507,192.954,235.657,184.101,229.493,180.786
					z"/>
				<g>
					<defs>
						<path id="SVGID_00000094612795416326662610000012718274209195765639_" d="M182.874,294.566
							c-8.934-2.811-12.617-8.986-12.96-13.616l-0.178-2.33l1.606-1.343c-0.374,0.201-0.744,0.399-1.105,0.593l0,0l1.105-0.593
							c3.098-1.66,6.641-3.541,10.311-5.654c-2.178-12.374-9.306-23.03-16.063-30.915c-7.461-8.705-17.423-15.365-23.728-16.768
							c-2.706,1.42-5.35,2.702-7.806,3.739c-13.975,5.904-53.236,28.284-52.072,58.887c1.164,30.604,27.866,77.245,78.884,83.859
							c51.018,6.614,53.506-79.02,53.506-79.02l-0.91-1.874C213.464,289.532,194.017,298.072,182.874,294.566z"/>
					</defs>
					<clipPath id="SVGID_00000119108952355892775300000008767862485396154011_">
						<use xlink:href="#SVGID_00000094612795416326662610000012718274209195765639_"  style="overflow:visible;"/>
					</clipPath>
					<g style="clip-path:url(#SVGID_00000119108952355892775300000008767862485396154011_);">
						
							<path style="fill:none;stroke:#FFFFFF;stroke-width:0.75;stroke-linecap:round;stroke-linejoin:round;stroke-miterlimit:10;" d="
							M104.699,236.168c-2.175-2.942-5.408-4.803-8.99-5.147c-6.969-0.668-13.118,4.623-13.705,11.795
							c-0.587,7.171,4.605,13.549,11.575,14.217c3.951,0.379,7.796-1.157,10.447-4.132c2.175,2.942,5.408,4.803,8.99,5.147
							c6.969,0.668,13.117-4.624,13.704-11.795c0.587-7.172-4.605-13.549-11.574-14.217
							C111.195,231.657,107.349,233.192,104.699,236.168z"/>
						
							<path style="fill:none;stroke:#FFFFFF;stroke-width:0.75;stroke-linecap:round;stroke-linejoin:round;stroke-miterlimit:10;" d="
							M172.995,236.168c-2.175-2.942-5.408-4.803-8.99-5.147c-6.969-0.668-13.118,4.623-13.705,11.795
							c-0.587,7.171,4.605,13.549,11.575,14.217c3.951,0.379,7.796-1.157,10.447-4.132c2.175,2.942,5.408,4.803,8.99,5.147
							c6.97,0.668,13.117-4.624,13.705-11.795c0.587-7.172-4.605-13.549-11.574-14.217
							C179.491,231.657,175.646,233.192,172.995,236.168z"/>
						
							<path style="fill:none;stroke:#FFFFFF;stroke-width:0.75;stroke-linecap:round;stroke-linejoin:round;stroke-miterlimit:10;" d="
							M144.68,275.136c-2.175-2.942-5.408-4.803-8.99-5.147c-6.969-0.668-13.118,4.623-13.705,11.795
							c-0.588,7.171,4.605,13.549,11.575,14.217c3.951,0.379,7.796-1.157,10.447-4.132c2.175,2.942,5.408,4.803,8.99,5.147
							c6.969,0.668,13.117-4.624,13.704-11.795c0.587-7.172-4.605-13.549-11.574-14.217
							C151.175,270.625,147.33,272.161,144.68,275.136z"/>
						
							<path style="fill:none;stroke:#FFFFFF;stroke-width:0.75;stroke-linecap:round;stroke-linejoin:round;stroke-miterlimit:10;" d="
							M90.419,300.566c-2.175-2.942-5.408-4.803-8.99-5.147c-6.969-0.668-13.118,4.623-13.705,11.795
							c-0.588,7.171,4.605,13.549,11.575,14.217c3.951,0.379,7.796-1.157,10.447-4.132c2.175,2.942,5.408,4.803,8.99,5.147
							c6.969,0.668,13.117-4.624,13.705-11.795c0.587-7.172-4.605-13.549-11.574-14.217C96.915,296.055,93.07,297.59,90.419,300.566
							z"/>
						
							<path style="fill:none;stroke:#FFFFFF;stroke-width:0.75;stroke-linecap:round;stroke-linejoin:round;stroke-miterlimit:10;" d="
							M144.68,326.183c-2.175-2.942-5.408-4.803-8.99-5.147c-6.969-0.668-13.118,4.623-13.705,11.795
							c-0.588,7.171,4.605,13.549,11.575,14.217c3.951,0.379,7.796-1.157,10.447-4.132c2.175,2.942,5.408,4.803,8.99,5.147
							c6.969,0.668,13.117-4.624,13.704-11.795c0.587-7.172-4.605-13.549-11.574-14.217
							C151.175,321.672,147.33,323.207,144.68,326.183z"/>
						
							<path style="fill:none;stroke:#FFFFFF;stroke-width:0.75;stroke-linecap:round;stroke-linejoin:round;stroke-miterlimit:10;" d="
							M203.898,290.515c-2.175-2.942-5.408-4.803-8.99-5.147c-6.969-0.668-13.118,4.623-13.705,11.795
							c-0.588,7.171,4.605,13.549,11.575,14.217c3.951,0.379,7.796-1.157,10.446-4.132c2.175,2.942,5.408,4.803,8.99,5.147
							c6.97,0.668,13.117-4.624,13.705-11.795c0.587-7.172-4.605-13.549-11.574-14.217
							C210.394,286.004,206.549,287.539,203.898,290.515z"/>
					</g>
				</g>
				<path style="fill:#FFFFFF;" d="M229.493,180.786c-1.081-0.581-2.315-0.965-3.66-1.136l0.31-0.104c0,0,0.546-7.429-10.267-6.157
					c-1.968,0.232-3.949,0.946-5.873,1.954l0-0.001c0,0-5.57-4.338-15.333,4.092c-9.763,8.43-19.376,21.857-23.008,25.254
					c-2.522,2.359-12.937,9.68-23.746,15.913c11.517,7.975,31.712,24.799,38.301,48.3c10.074-6.25,20.139-14.267,23.938-24.366
					c6.351-16.883,3.12-26.835,5.261-33.984c2.141-7.15,7.328-13.18,11.654-15.137C232.507,192.954,235.657,184.101,229.493,180.786
					z"/>
				<g>
					
						<path style="fill:none;stroke:#000000;stroke-width:0.75;stroke-linecap:round;stroke-linejoin:round;stroke-miterlimit:10;" d="
						M160.865,287.8c1.108-3.383,3.199-6.538,6.93-8.601c12.145-6.715,36.008-17.781,42.36-34.664
						c6.351-16.883,3.12-26.835,5.261-33.984c2.141-7.15,7.328-13.18,11.654-15.137c5.438-2.46,8.588-11.313,2.424-14.628
						c-6.164-3.315-17.25-0.376-25.932,13.587"/>
					
						<path style="fill:none;stroke:#000000;stroke-width:0.75;stroke-linecap:round;stroke-linejoin:round;stroke-miterlimit:10;" d="
						M193.857,190.392c0,0,11.205-15.732,22.018-17.003c10.813-1.272,10.268,6.157,10.268,6.157"/>
					
						<path style="fill:none;stroke:#000000;stroke-width:0.75;stroke-linecap:round;stroke-linejoin:round;stroke-miterlimit:10;" d="
						M210.002,175.341c0,0-5.57-4.338-15.333,4.092c-9.763,8.43-19.376,21.857-23.008,25.254
						c-3.632,3.397-23.63,17.087-37.605,22.991c-13.975,5.904-53.236,28.283-52.072,58.887
						c1.164,30.604,27.866,77.245,78.884,83.859s53.506-79.02,53.506-79.02l-0.91-1.874c0,0-19.447,8.54-30.59,5.034
						c-11.143-3.506-14.131-12.25-12.637-16.696"/>
				</g>
				<g>
					
						<path style="fill:#ED5D1C;stroke:#000000;stroke-width:0.75;stroke-linecap:round;stroke-linejoin:round;stroke-miterlimit:10;" d="
						M191.469,265.454c-8.799-28.699-24.454-43.041-35.293-49.856c-4.484,2.839-9.428,5.772-14.184,8.274
						c22.694,15.789,33.426,36.844,37.971,48.713C183.726,270.464,187.678,268.094,191.469,265.454z"/>
					<g>
						
							<line style="fill:none;stroke:#000000;stroke-width:0.75;stroke-linecap:round;stroke-linejoin:round;stroke-miterlimit:10;" x1="151.732" y1="229.121" x2="162.335" y2="222.613"/>
						
							<line style="fill:none;stroke:#000000;stroke-width:0.75;stroke-linecap:round;stroke-linejoin:round;stroke-miterlimit:10;" x1="162.335" y1="239.584" x2="172.658" y2="232.977"/>
						
							<line style="fill:none;stroke:#000000;stroke-width:0.75;stroke-linecap:round;stroke-linejoin:round;stroke-miterlimit:10;" x1="170.17" y1="250.255" x2="180.719" y2="244.535"/>
						
							<line style="fill:none;stroke:#000000;stroke-width:0.75;stroke-linecap:round;stroke-linejoin:round;stroke-miterlimit:10;" x1="177.138" y1="262.616" x2="186.939" y2="257.256"/>
					</g>
				</g>
			</g>
			<g>
				<path style="fill:#ED5D1C;" d="M348.554,457.188c-8.853-100.475-52.251-176.753-104.456-176.753
					c-52.204,0-95.603,76.278-104.456,176.753H348.554z"/>
				<g>
					<defs>
						<path id="SVGID_00000116936923836876176860000000253412508771988622_" d="M348.554,457.188
							c-8.853-100.475-52.251-176.753-104.456-176.753c-52.204,0-95.603,76.278-104.456,176.753H348.554z"/>
					</defs>
					<clipPath id="SVGID_00000121260558008669634640000007197723140635326868_">
						<use xlink:href="#SVGID_00000116936923836876176860000000253412508771988622_"  style="overflow:visible;"/>
					</clipPath>
					<g style="clip-path:url(#SVGID_00000121260558008669634640000007197723140635326868_);">
						
							<path style="fill:none;stroke:#FFFFFF;stroke-width:0.75;stroke-linecap:round;stroke-linejoin:round;stroke-miterlimit:10;" d="
							M213.802,338.703c-2.175-2.942-5.408-4.803-8.99-5.147c-6.969-0.668-13.118,4.623-13.705,11.795
							c-0.587,7.171,4.605,13.549,11.575,14.217c3.951,0.379,7.796-1.157,10.447-4.132c2.175,2.942,5.408,4.803,8.99,5.147
							c6.969,0.668,13.117-4.624,13.704-11.795c0.587-7.172-4.605-13.549-11.574-14.217
							C220.297,334.192,216.452,335.728,213.802,338.703z"/>
						
							<path style="fill:none;stroke:#FFFFFF;stroke-width:0.75;stroke-linecap:round;stroke-linejoin:round;stroke-miterlimit:10;" d="
							M168.132,381.108c-2.175-2.942-5.408-4.803-8.99-5.147c-6.969-0.668-13.118,4.623-13.705,11.795
							c-0.587,7.171,4.605,13.549,11.575,14.217c3.951,0.379,7.796-1.157,10.447-4.132c2.175,2.942,5.408,4.803,8.99,5.147
							c6.969,0.668,13.117-4.624,13.704-11.795c0.587-7.172-4.605-13.549-11.574-14.217
							C174.627,376.597,170.782,378.132,168.132,381.108z"/>
						
							<path style="fill:none;stroke:#FFFFFF;stroke-width:0.75;stroke-linecap:round;stroke-linejoin:round;stroke-miterlimit:10;" d="
							M259.517,387.148c-2.175-2.942-5.408-4.803-8.99-5.147c-6.969-0.668-13.118,4.623-13.705,11.795
							c-0.587,7.171,4.605,13.549,11.575,14.217c3.951,0.379,7.796-1.157,10.447-4.132c2.175,2.942,5.408,4.803,8.99,5.147
							c6.97,0.668,13.117-4.624,13.704-11.795c0.587-7.172-4.605-13.549-11.574-14.217
							C266.013,382.637,262.168,384.172,259.517,387.148z"/>
						
							<path style="fill:none;stroke:#FFFFFF;stroke-width:0.75;stroke-linecap:round;stroke-linejoin:round;stroke-miterlimit:10;" d="
							M207.674,422.254c-2.175-2.942-5.408-4.803-8.99-5.147c-6.969-0.668-13.118,4.623-13.705,11.795
							c-0.587,7.171,4.605,13.549,11.575,14.217c3.951,0.379,7.796-1.157,10.447-4.132c2.175,2.942,5.408,4.803,8.99,5.147
							c6.97,0.668,13.117-4.624,13.705-11.795c0.587-7.172-4.605-13.549-11.574-14.217
							C214.17,417.743,210.325,419.279,207.674,422.254z"/>
						
							<path style="fill:none;stroke:#FFFFFF;stroke-width:0.75;stroke-linecap:round;stroke-linejoin:round;stroke-miterlimit:10;" d="
							M139.98,454.139c-2.175-2.942-5.408-4.803-8.99-5.147c-6.969-0.668-13.118,4.623-13.705,11.795
							c-0.588,7.171,4.605,13.549,11.575,14.217c3.951,0.379,7.796-1.157,10.447-4.132c2.175,2.942,5.408,4.803,8.99,5.147
							c6.969,0.668,13.117-4.624,13.705-11.795c0.587-7.172-4.605-13.549-11.574-14.217
							C146.476,449.628,142.63,451.164,139.98,454.139z"/>
						
							<path style="fill:none;stroke:#FFFFFF;stroke-width:0.75;stroke-linecap:round;stroke-linejoin:round;stroke-miterlimit:10;" d="
							M281.921,449.774c-2.175-2.942-5.408-4.803-8.99-5.147c-6.969-0.668-13.118,4.623-13.705,11.795
							c-0.587,7.171,4.605,13.549,11.575,14.217c3.951,0.379,7.796-1.157,10.447-4.132c2.175,2.942,5.408,4.803,8.99,5.147
							c6.969,0.668,13.117-4.624,13.705-11.795c0.587-7.172-4.605-13.549-11.574-14.217
							C288.416,445.263,284.571,446.798,281.921,449.774z"/>
						
							<path style="fill:none;stroke:#FFFFFF;stroke-width:0.75;stroke-linecap:round;stroke-linejoin:round;stroke-miterlimit:10;" d="
							M329.523,415.18c-2.175-2.942-5.408-4.803-8.99-5.147c-6.969-0.668-13.118,4.623-13.705,11.795
							c-0.587,7.171,4.605,13.549,11.575,14.217c3.951,0.379,7.796-1.157,10.447-4.132c2.175,2.942,5.408,4.803,8.99,5.147
							c6.97,0.668,13.117-4.624,13.704-11.795c0.587-7.172-4.605-13.549-11.574-14.217
							C336.019,410.669,332.173,412.204,329.523,415.18z"/>
						
							<path style="fill:none;stroke:#FFFFFF;stroke-width:0.75;stroke-linecap:round;stroke-linejoin:round;stroke-miterlimit:10;" d="
							M311.069,359.44c-2.175-2.942-5.408-4.803-8.99-5.147c-6.969-0.668-13.118,4.623-13.705,11.795
							c-0.587,7.171,4.605,13.549,11.575,14.217c3.951,0.379,7.796-1.157,10.447-4.132c2.175,2.942,5.408,4.803,8.99,5.147
							c6.969,0.668,13.117-4.624,13.705-11.795c0.587-7.172-4.605-13.549-11.574-14.217
							C317.564,354.929,313.719,356.464,311.069,359.44z"/>
						
							<path style="fill:none;stroke:#FFFFFF;stroke-width:0.75;stroke-linecap:round;stroke-linejoin:round;stroke-miterlimit:10;" d="
							M279.889,318.981c-2.175-2.942-5.408-4.803-8.99-5.147c-6.969-0.668-13.118,4.623-13.705,11.795
							c-0.587,7.171,4.605,13.549,11.575,14.217c3.951,0.379,7.796-1.157,10.447-4.132c2.175,2.942,5.408,4.803,8.99,5.147
							c6.969,0.668,13.117-4.624,13.704-11.795c0.587-7.172-4.605-13.549-11.574-14.217
							C286.384,314.47,282.539,316.006,279.889,318.981z"/>
						
							<path style="fill:none;stroke:#FFFFFF;stroke-width:0.75;stroke-linecap:round;stroke-linejoin:round;stroke-miterlimit:10;" d="
							M181.203,297.164c-0.588,7.171,4.605,13.549,11.575,14.217c3.951,0.379,7.796-1.157,10.446-4.132
							c2.175,2.942,5.408,4.803,8.99,5.147c5.117,0.49,9.79-2.231,12.146-6.551"/>
						
							<path style="fill:none;stroke:#FFFFFF;stroke-width:0.75;stroke-linecap:round;stroke-linejoin:round;stroke-miterlimit:10;" d="
							M270.854,299.12c2.335,1.641,5.222,2.486,8.265,2.194c3.582-0.343,6.815-2.205,8.99-5.147
							c2.65,2.975,6.496,4.511,10.447,4.132c6.969-0.668,12.162-7.046,11.575-14.217c-0.587-7.172-6.736-12.463-13.705-11.795
							c-3.582,0.343-6.815,2.205-8.99,5.147"/>
					</g>
				</g>
				
					<path style="fill:none;stroke:#000000;stroke-width:0.75;stroke-linecap:round;stroke-linejoin:round;stroke-miterlimit:10;" d="
					M174.061,333.842c-17.66,31.42-30.117,74.526-34.418,123.345h208.911c-4.181-47.452-16.067-89.506-32.947-120.678"/>
				<g>
					<path style="fill:#FFFFFF;" d="M281.357,294.047c-11.592-8.798-24.147-13.612-37.259-13.612
						c-12.503,0-24.499,4.386-35.638,12.421c3.851,8.136,11.228,19.268,23.928,23.53
						C250.041,322.31,273.544,306.591,281.357,294.047z"/>
					<g>
						<path style="stroke:#000000;stroke-width:0.75;stroke-linecap:round;stroke-linejoin:round;stroke-miterlimit:10;" d="
							M253.384,319.573l-4.552-11.122l-4.734-1.308l-4.734,1.308l-4.548,11.11C239.767,320.609,246.558,321.288,253.384,319.573z"/>
						<path style="stroke:#000000;stroke-width:0.75;stroke-linecap:round;stroke-linejoin:round;stroke-miterlimit:10;" d="
							M243.238,294.734l-5.076,1.83c-1.245,0.449-1.936,1.78-1.588,3.057l2.034,7.443c0.302,1.104,1.304,1.869,2.448,1.869h1.622
							h2.84h1.622c1.144,0,2.147-0.765,2.448-1.869l2.034-7.443c0.349-1.277-0.342-2.608-1.588-3.057l-5.076-1.83
							C244.403,294.533,243.794,294.533,243.238,294.734z"/>
					</g>
				</g>
				<g>
					
						<path style="fill:#ED5D1C;stroke:#000000;stroke-width:0.75;stroke-linecap:round;stroke-linejoin:round;stroke-miterlimit:10;" d="
						M244.098,324.789c17.223,0,33.765-14.262,40.671-31.633c-4.462-1.465-8.148-2.556-11.484-4.483
						c-4.92,13.372-16.133,22.719-29.187,22.719c-13.054,0-24.267-9.347-29.187-22.72c-3.337,1.928-7.574,2.935-11.648,4.437
						C210.17,310.48,226.875,324.789,244.098,324.789z"/>
					<g>
						
							<line style="fill:none;stroke:#000000;stroke-width:0.75;stroke-linecap:round;stroke-linejoin:round;stroke-miterlimit:10;" x1="210.154" y1="300.931" x2="216.774" y2="296.833"/>
						
							<line style="fill:none;stroke:#000000;stroke-width:0.75;stroke-linecap:round;stroke-linejoin:round;stroke-miterlimit:10;" x1="216.774" y1="308.933" x2="222.122" y2="304.215"/>
						
							<line style="fill:none;stroke:#000000;stroke-width:0.75;stroke-linecap:round;stroke-linejoin:round;stroke-miterlimit:10;" x1="229.208" y1="309.921" x2="225.271" y2="316.783"/>
						
							<line style="fill:none;stroke:#000000;stroke-width:0.75;stroke-linecap:round;stroke-linejoin:round;stroke-miterlimit:10;" x1="239.759" y1="313.642" x2="238.341" y2="320.979"/>
						
							<line style="fill:none;stroke:#000000;stroke-width:0.75;stroke-linecap:round;stroke-linejoin:round;stroke-miterlimit:10;" x1="248.919" y1="313.271" x2="250.425" y2="320.192"/>
						
							<line style="fill:none;stroke:#000000;stroke-width:0.75;stroke-linecap:round;stroke-linejoin:round;stroke-miterlimit:10;" x1="257.439" y1="310.5" x2="260.921" y2="317.31"/>
						
							<line style="fill:none;stroke:#000000;stroke-width:0.75;stroke-linecap:round;stroke-linejoin:round;stroke-miterlimit:10;" x1="265.369" y1="305.099" x2="270.572" y2="310.5"/>
						
							<line style="fill:none;stroke:#000000;stroke-width:0.75;stroke-linecap:round;stroke-linejoin:round;stroke-miterlimit:10;" x1="270.572" y1="298.882" x2="275.977" y2="302.864"/>
					</g>
				</g>
				
					<path style="fill:#FFFFFF;stroke:#000000;stroke-width:0.75;stroke-linecap:round;stroke-linejoin:round;stroke-miterlimit:10;" d="
					M275.929,287.171c-4.238-3.802-14.485-11.318-30.176-12.406c0,0-1.103-0.091-1.655-0.069c-0.552-0.022-1.655,0.069-1.655,0.069
					c-15.691,1.089-25.938,8.604-30.176,12.406c-1.165,1.046-0.962,2.922,0.394,3.704c5.801,3.345,19.449,11.129,22.039,11.82
					c2.473,0.66,7.179-4.697,9.398-7.443c2.218,2.746,6.925,8.103,9.398,7.443c2.59-0.691,16.238-8.475,22.039-11.82
					C276.891,290.094,277.094,288.217,275.929,287.171z"/>
			</g>
		</g>
		<g>
			<g>
				<path d="M255.587,224.546c0.034,2.046-1.225,3.726-2.813,3.752c-1.588,0.027-2.903-1.61-2.937-3.656
					c-0.034-2.046,1.225-3.726,2.813-3.752C254.238,220.863,255.553,222.5,255.587,224.546z"/>
				<path d="M227.44,223.903c0.034,1.998-1.196,3.638-2.747,3.664c-1.55,0.026-2.835-1.572-2.868-3.57
					c-0.033-1.998,1.196-3.638,2.747-3.664C226.122,220.307,227.406,221.905,227.44,223.903z"/>
			</g>
			
				<polyline style="fill:none;stroke:#000000;stroke-width:0.75;stroke-linecap:round;stroke-linejoin:round;stroke-miterlimit:10;" points="
				238.745,217.676 232.778,228.908 240.764,229.344 			"/>
			<path style="fill:none;stroke:#000000;stroke-width:0.75;stroke-linecap:round;stroke-linejoin:round;stroke-miterlimit:10;" d="
				M227.44,236.185c0,0,3.214-2.083,5.944,0c2.729,2.083,4.409,0.981,6.404-0.463c1.995-1.444,4.409,0.056,5.564,1.615"/>
		</g>
	</g>
	<g>
		
			<line style="fill:none;stroke:#000000;stroke-width:0.75;stroke-linecap:round;stroke-linejoin:round;stroke-miterlimit:10;" x1="29.82" y1="457.188" x2="457.422" y2="457.188"/>
		<g>
			<g>
				<polygon style="fill:#FFFFFF;" points="316.661,312.304 316.661,298.882 449.307,298.882 449.307,312.304 446.508,312.304 
					445.341,324.558 445.341,335.646 435.833,335.646 435.308,345.858 445.341,345.858 444.058,362.781 438.633,362.781 
					439.683,380.579 444.67,380.579 444.583,393.125 319.461,393.125 318.936,380.579 323.223,380.579 323.573,362.781 
					310.274,362.781 309.836,345.493 315.436,345.858 315.174,335.646 309.836,335.646 309.836,324.558 305.549,312.304 				"/>
				<g>
					<polygon style="fill:#D4D4D4;" points="446.508,312.304 446.508,317.361 375.985,314.832 					"/>
					<polygon style="fill:#D4D4D4;" points="449.307,303.745 377.909,303.745 376.685,303.745 449.307,309.277 					"/>
					<polygon style="fill:#D4D4D4;" points="315.174,335.646 315.323,341.443 411.975,335.646 					"/>
					<polygon style="fill:#D4D4D4;" points="398.384,353.736 444.594,355.704 444.801,352.985 					"/>
				</g>
				<g>
					
						<line style="fill:none;stroke:#000000;stroke-width:0.75;stroke-linecap:round;stroke-linejoin:round;stroke-miterlimit:10;" x1="306.512" y1="312.304" x2="449.111" y2="312.304"/>
					
						<path style="fill:none;stroke:#000000;stroke-width:0.75;stroke-linecap:round;stroke-linejoin:round;stroke-miterlimit:10;" d="
						M309.836,335.646c1.743,0,134.221,0,134.221,0"/>
					
						<path style="fill:none;stroke:#000000;stroke-width:0.75;stroke-linecap:round;stroke-linejoin:round;stroke-miterlimit:10;" d="
						M309.836,324.558c2.07,0,135.257,0,135.257,0"/>
					
						<line style="fill:none;stroke:#000000;stroke-width:0.75;stroke-linecap:round;stroke-linejoin:round;stroke-miterlimit:10;" x1="331.711" y1="329.227" x2="382.459" y2="329.227"/>
					
						<line style="fill:none;stroke:#000000;stroke-width:0.75;stroke-linecap:round;stroke-linejoin:round;stroke-miterlimit:10;" x1="309.836" y1="345.858" x2="445.341" y2="345.858"/>
					
						<line style="fill:none;stroke:#000000;stroke-width:0.75;stroke-linecap:round;stroke-linejoin:round;stroke-miterlimit:10;" x1="310.369" y1="362.781" x2="443.734" y2="362.781"/>
				</g>
				
					<polygon style="fill:none;stroke:#000000;stroke-width:0.75;stroke-linecap:round;stroke-linejoin:round;stroke-miterlimit:10;" points="
					309.836,335.646 315.174,335.646 315.436,345.858 309.836,345.493 310.274,362.781 323.573,362.781 438.633,362.781 
					444.058,362.781 445.341,345.858 435.308,345.858 435.833,335.646 445.341,335.646 445.341,324.558 446.508,312.303 
					449.307,312.303 449.307,298.882 316.661,298.882 316.661,312.303 305.549,312.303 309.836,324.558 				"/>
			</g>
			<g>
				<polygon style="fill:#FFFFFF;" points="316.809,376.366 316.809,362.944 449.455,362.944 449.455,376.366 446.655,376.366 
					445.489,388.62 445.489,399.708 435.981,399.708 435.456,409.92 445.489,409.92 444.205,426.843 438.78,426.843 439.83,444.641 
					444.818,444.641 444.73,457.188 319.609,457.188 319.084,444.641 323.371,444.641 323.721,426.843 310.422,426.843 
					309.984,409.555 315.584,409.92 315.322,399.708 309.984,399.708 309.984,388.62 305.697,376.366 				"/>
				<g>
					<polygon style="fill:#D4D4D4;" points="446.655,376.366 446.655,381.423 376.132,378.894 					"/>
					<polygon style="fill:#D4D4D4;" points="449.455,367.807 378.057,367.807 376.832,367.807 449.455,373.339 					"/>
					<polygon style="fill:#D4D4D4;" points="315.322,399.707 315.471,405.504 412.123,399.707 					"/>
					<polygon style="fill:#D4D4D4;" points="398.532,417.798 444.742,419.766 444.948,417.047 					"/>
					<polygon style="fill:#D4D4D4;" points="439.057,431.535 438.886,428.621 363.474,430.052 					"/>
					<polygon style="fill:#D4D4D4;" points="323.371,444.641 319.084,444.641 319.203,447.487 414.69,444.641 					"/>
				</g>
				<g>
					
						<line style="fill:none;stroke:#000000;stroke-width:0.75;stroke-linecap:round;stroke-linejoin:round;stroke-miterlimit:10;" x1="306.659" y1="376.366" x2="449.259" y2="376.366"/>
					
						<path style="fill:none;stroke:#000000;stroke-width:0.75;stroke-linecap:round;stroke-linejoin:round;stroke-miterlimit:10;" d="
						M309.984,399.708c1.743,0,134.221,0,134.221,0"/>
					
						<path style="fill:none;stroke:#000000;stroke-width:0.75;stroke-linecap:round;stroke-linejoin:round;stroke-miterlimit:10;" d="
						M309.984,388.62c2.07,0,135.257,0,135.257,0"/>
					
						<line style="fill:none;stroke:#000000;stroke-width:0.75;stroke-linecap:round;stroke-linejoin:round;stroke-miterlimit:10;" x1="331.859" y1="393.289" x2="382.607" y2="393.289"/>
					
						<line style="fill:none;stroke:#000000;stroke-width:0.75;stroke-linecap:round;stroke-linejoin:round;stroke-miterlimit:10;" x1="309.984" y1="409.92" x2="445.489" y2="409.92"/>
					
						<line style="fill:none;stroke:#000000;stroke-width:0.75;stroke-linecap:round;stroke-linejoin:round;stroke-miterlimit:10;" x1="310.517" y1="426.843" x2="443.881" y2="426.843"/>
					
						<line style="fill:none;stroke:#000000;stroke-width:0.75;stroke-linecap:round;stroke-linejoin:round;stroke-miterlimit:10;" x1="324.509" y1="434.429" x2="437.556" y2="434.429"/>
					
						<line style="fill:none;stroke:#000000;stroke-width:0.75;stroke-linecap:round;stroke-linejoin:round;stroke-miterlimit:10;" x1="331.859" y1="439.973" x2="406.056" y2="439.973"/>
					
						<line style="fill:none;stroke:#000000;stroke-width:0.75;stroke-linecap:round;stroke-linejoin:round;stroke-miterlimit:10;" x1="319.084" y1="444.641" x2="444.205" y2="444.641"/>
					
						<line style="fill:none;stroke:#000000;stroke-width:0.75;stroke-linecap:round;stroke-linejoin:round;stroke-miterlimit:10;" x1="352.858" y1="452.227" x2="444.205" y2="452.227"/>
				</g>
				
					<polygon style="fill:none;stroke:#000000;stroke-width:0.75;stroke-linecap:round;stroke-linejoin:round;stroke-miterlimit:10;" points="
					316.809,376.366 316.809,362.944 449.455,362.944 449.455,376.366 446.655,376.366 445.489,388.62 445.489,399.708 
					435.981,399.708 435.456,409.92 445.489,409.92 444.205,426.843 438.78,426.843 439.83,444.641 444.818,444.641 444.73,457.188 
					319.609,457.188 319.084,444.641 323.371,444.641 323.721,426.843 310.422,426.843 309.984,409.555 315.584,409.92 
					315.322,399.708 309.984,399.708 309.984,388.62 305.697,376.366 				"/>
			</g>
		</g>
		<g>
			<g>
				
					<path style="fill:#FFFFFF;stroke:#000000;stroke-width:0.75;stroke-linecap:round;stroke-linejoin:round;stroke-miterlimit:10;" d="
					M346.163,266.433c0,11.087,8.988,20.075,20.074,20.075c11.087,0,20.075-8.988,20.075-20.075
					c0-11.087-8.988-20.074-20.075-20.074C355.151,246.359,346.163,255.346,346.163,266.433z M353.552,266.433
					c0-7.006,5.68-12.685,12.686-12.685c7.006,0,12.686,5.679,12.686,12.685c0,7.006-5.68,12.686-12.686,12.686
					C359.232,279.119,353.552,273.439,353.552,266.433z"/>
				
					<path style="fill:#FFFFFF;stroke:#000000;stroke-width:0.75;stroke-linecap:round;stroke-linejoin:round;stroke-miterlimit:10;" d="
					M376.786,298.651h32.539c6.293,0,11.394-5.102,11.394-11.394v-40.94c0-6.293-5.101-11.394-11.394-11.394h-32.539
					c-6.293,0-11.394,5.101-11.394,11.394v40.94C365.392,293.549,370.493,298.651,376.786,298.651z"/>
			</g>
			<g>
				
					<ellipse style="fill:none;stroke:#000000;stroke-width:0.75;stroke-linecap:round;stroke-linejoin:round;stroke-miterlimit:10;" cx="402.317" cy="220.643" rx="8.146" ry="7.276"/>
				
					<path style="fill:none;stroke:#000000;stroke-width:0.75;stroke-linecap:round;stroke-linejoin:round;stroke-miterlimit:10;" d="
					M398.809,203.79c-8.515-5.924-18.477-17.513-7.978-31.329c11.487-15.117,33.051,2.585,36.577-22.433
					c3.526-25.018,22.422-28.726,36.28-14.275c13.857,14.452,3.985,40.907-15.014,48.466s-29.917-2.163-32.227,10.288
					C414.143,206.918,403.864,207.307,398.809,203.79z"/>
			</g>
			<g>
				<g>
					
						<path style="fill:none;stroke:#D4D4D4;stroke-width:0.75;stroke-linecap:round;stroke-linejoin:round;stroke-miterlimit:10;" d="
						M411.851,258.602c0.707,2.718-7.333,7.161-17.957,9.923c-10.624,2.762-19.809,2.798-20.516,0.08
						c-0.707-2.718,7.333-7.161,17.957-9.923C401.959,255.92,411.144,255.884,411.851,258.602z"/>
					
						<path style="fill:none;stroke:#D4D4D4;stroke-width:0.75;stroke-linecap:round;stroke-linejoin:round;stroke-miterlimit:10;" d="
						M415.244,258.413c0.945,3.633-8.345,9.193-20.75,12.418c-12.404,3.225-23.226,2.894-24.171-0.739
						c-0.945-3.633,8.345-9.193,20.75-12.418C403.477,254.449,414.299,254.78,415.244,258.413z"/>
				</g>
				
					<ellipse transform="matrix(0.9678 -0.2517 0.2517 0.9678 -54.0423 107.4015)" cx="392.896" cy="264.995" rx="16.28" ry="14.592"/>
				<g>
					<defs>
						
							<ellipse id="SVGID_00000067958996772865671390000013609745144601779873_" transform="matrix(0.9678 -0.2517 0.2517 0.9678 -54.0423 107.4015)" cx="392.896" cy="264.995" rx="16.28" ry="14.592"/>
					</defs>
					<clipPath id="SVGID_00000148663547199628036580000003896527263699849137_">
						<use xlink:href="#SVGID_00000067958996772865671390000013609745144601779873_"  style="overflow:visible;"/>
					</clipPath>
				</g>
				<g>
					<g>
						
							<path style="fill:none;stroke:#D4D4D4;stroke-width:0.75;stroke-linecap:round;stroke-linejoin:round;stroke-miterlimit:10;" d="
							M411.851,258.602c0.707,2.718-7.333,7.161-17.957,9.923c-10.624,2.762-19.809,2.798-20.516,0.08"/>
						
							<path style="fill:none;stroke:#D4D4D4;stroke-width:0.75;stroke-linecap:round;stroke-linejoin:round;stroke-miterlimit:10;" d="
							M409.75,255.636c3.092,0.368,5.109,1.3,5.493,2.777c0.945,3.633-8.345,9.193-20.75,12.418
							c-12.404,3.225-23.226,2.894-24.171-0.739"/>
					</g>
				</g>
			</g>
		</g>
		<g>
			<path d="M93.67,463.159l102.409,0.187c10.631,0.019,16.127-8.23,12.277-18.426l-26.844-71.077
				c-3.851-10.196-15.59-18.477-26.221-18.496L52.881,355.16c-10.631-0.02-16.127,8.23-12.277,18.426l26.844,71.077
				C71.299,454.858,83.039,463.139,93.67,463.159z"/>
			<path style="fill:#FFFFFF;" d="M109.128,403.618c1.201,4.513,5.831,8.179,10.342,8.187c4.511,0.008,7.195-3.644,5.995-8.158
				c-1.201-4.514-5.831-8.179-10.342-8.188C110.611,395.453,107.927,399.105,109.128,403.618z"/>
			<path d="M270.308,460.9l0.02-10.416c0.003-1.354-1.093-2.453-2.447-2.456l-103.178-0.188c-1.354-0.003-2.453,1.093-2.455,2.447
				l-0.018,10.416c-0.002,1.354,1.093,2.453,2.447,2.456l103.175,0.188C269.206,463.349,270.305,462.253,270.308,460.9"/>
		</g>
		<g>
			
				<rect x="60.887" y="156.783" transform="matrix(0.9163 -0.4004 0.4004 0.9163 -63.2885 53.6838)" style="fill:#FFFFFF;stroke:#000000;stroke-width:0.75;stroke-linecap:round;stroke-linejoin:round;stroke-miterlimit:10;" width="71.843" height="42.988"/>
			
				<polyline style="fill:none;stroke:#000000;stroke-width:0.75;stroke-linecap:round;stroke-linejoin:round;stroke-miterlimit:10;" points="
				55.286,172.966 100.235,186.939 121.117,144.197 			"/>
			
				<line style="fill:none;stroke:#000000;stroke-width:0.75;stroke-linecap:round;stroke-linejoin:round;stroke-miterlimit:10;" x1="72.5" y1="212.357" x2="84.155" y2="181.94"/>
			
				<line style="fill:none;stroke:#000000;stroke-width:0.75;stroke-linecap:round;stroke-linejoin:round;stroke-miterlimit:10;" x1="107.706" y1="171.648" x2="138.331" y2="183.588"/>
		</g>
		<g>
			<g>
				
					<text transform="matrix(0.9163 -0.4004 0.4004 0.9163 49.6808 331.0241)" style="font-family:'Poppins-Medium'; font-size:44.1538px;">!</text>
			</g>
			
				<text transform="matrix(0.8855 0.4647 -0.4647 0.8855 334.5523 187.5289)" style="font-family:'Poppins-Medium'; font-size:45.8807px;">?</text>
		</g>
		<g>
			<path style="fill:#D4D4D4;" d="M346.282,121.246c-1.501-8.283-4.807-15.871-16.601-18.514l-0.043-0.253l4.207,1.014
				c5.426-4.149,11.631-27.326-4.614-38.291c-16.245-10.965-34.407,5.084-34.407,5.084s-6.611-34.092-45.193-33.626
				c-39.275,0.474-46.774,35.272-46.774,35.272l0.055,0.013l-0.031,0.038c-8.906-2.914-23.51-4.741-38.741,5.824
				c-24.57,17.043-10.26,53.791,15.685,50.342c0,0-4.664,16.742,12.874,25.43c17.538,8.688,34.735-10.75,34.735-10.75
				s10.216,12.395,25.446,13.683c15.23,1.288,23.657-13.333,24.419-18.206c0,0,11.574,20.718,36.704,20.613
				C341.476,158.8,347.915,130.255,346.282,121.246z"/>
			<g>
				
					<path style="fill:none;stroke:#000000;stroke-width:0.75;stroke-linecap:round;stroke-linejoin:round;stroke-miterlimit:10;" d="
					M189.357,102.717c0,0-5.483,12.963,3.822,23.098c9.304,10.135,22.713,4.366,24.782,2.332"/>
				
					<path style="fill:none;stroke:#000000;stroke-width:0.75;stroke-linecap:round;stroke-linejoin:round;stroke-miterlimit:10;" d="
					M208.672,131.505c0,0-0.314,9.585,10.144,8.573"/>
				
					<path style="fill:none;stroke:#000000;stroke-width:0.75;stroke-linecap:round;stroke-linejoin:round;stroke-miterlimit:10;" d="
					M263.031,46.126c0,0,12.876,1.154,17.303,12.653"/>
				
					<path style="fill:none;stroke:#000000;stroke-width:0.75;stroke-linecap:round;stroke-linejoin:round;stroke-miterlimit:10;" d="
					M202.857,71.93c0,0,7.499-34.797,46.774-35.272c38.582-0.466,45.193,33.626,45.193,33.626s18.162-16.049,34.407-5.084
					c16.245,10.965,10.04,34.143,4.614,38.291"/>
				
					<path style="fill:none;stroke:#000000;stroke-width:0.75;stroke-linecap:round;stroke-linejoin:round;stroke-miterlimit:10;" d="
					M211.663,75.963c0,0-22.954-15.2-47.524,1.842s-10.26,53.791,15.685,50.342c0,0-4.664,16.742,12.874,25.43
					c17.538,8.688,34.735-10.75,34.735-10.75s10.216,12.395,25.446,13.683c15.23,1.288,23.657-13.333,24.419-18.206
					c0,0,11.574,20.718,36.704,20.613c27.474-0.116,33.913-28.661,32.28-37.67c-1.821-10.052-6.289-19.088-25.376-19.494"/>
			</g>
			
				<polygon style="fill:#FFFFFF;stroke:#000000;stroke-width:0.75;stroke-linecap:round;stroke-linejoin:round;stroke-miterlimit:10;" points="
				230.238,48.143 217.14,105.96 239.757,89.967 232.559,164.203 250.758,77.958 224.149,93.72 			"/>
			<g>
				
					<line style="fill:none;stroke:#000000;stroke-width:0.75;stroke-linecap:round;stroke-linejoin:round;stroke-miterlimit:10;" x1="299.604" y1="54.235" x2="312.162" y2="41.239"/>
				
					<line style="fill:none;stroke:#000000;stroke-width:0.75;stroke-linecap:round;stroke-linejoin:round;stroke-miterlimit:10;" x1="352.23" y1="97.785" x2="369.672" y2="95.356"/>
				
					<line style="fill:none;stroke:#000000;stroke-width:0.75;stroke-linecap:round;stroke-linejoin:round;stroke-miterlimit:10;" x1="352.23" y1="107.844" x2="362.766" y2="114.319"/>
				
					<line style="fill:none;stroke:#000000;stroke-width:0.75;stroke-linecap:round;stroke-linejoin:round;stroke-miterlimit:10;" x1="170.868" y1="135.829" x2="151.859" y2="146.741"/>
				
					<line style="fill:none;stroke:#000000;stroke-width:0.75;stroke-linecap:round;stroke-linejoin:round;stroke-miterlimit:10;" x1="195.819" y1="62.21" x2="178.147" y2="43.676"/>
				
					<line style="fill:none;stroke:#000000;stroke-width:0.75;stroke-linecap:round;stroke-linejoin:round;stroke-miterlimit:10;" x1="186.986" y1="63.272" x2="175.546" y2="58.779"/>
				
					<line style="fill:none;stroke:#000000;stroke-width:0.75;stroke-linecap:round;stroke-linejoin:round;stroke-miterlimit:10;" x1="198.96" y1="56.266" x2="195.819" y2="43.676"/>
			</g>
		</g>
	</g>
</g>
</svg>
